/* XPM */
static char *f1d84e1b673d4037b7aa56a8a973e158gC1WsuJgTmnuxHcM[] = {
/* columns rows colors chars-per-pixel */
"96 96 54 1 ",
"  c #915521",
". c #965A22",
"X c #9C5F26",
"o c #9D6026",
"O c #9F6128",
"+ c #A26429",
"@ c #A8672B",
"# c #A7682B",
"$ c #AB6A2D",
"% c #AD6D30",
"& c #B16E30",
"* c #B47131",
"= c #BA7635",
"- c #BB7937",
"; c #BE7B39",
": c #C17E3B",
"> c #C4813D",
", c #CA853E",
"< c #CC8641",
"1 c #CE8841",
"2 c #D58E44",
"3 c #D98F45",
"4 c #D79046",
"5 c #D99146",
"6 c #DC944A",
"7 c #DE964A",
"8 c #DD964C",
"9 c #DF974C",
"0 c #DF974F",
"q c #DF984B",
"w c #DF984C",
"e c #E0964A",
"r c #E1974C",
"t c #E1974F",
"y c #E0984B",
"u c #E39B4F",
"i c #E59B4F",
"p c #E39C4F",
"a c #E49C4F",
"s c #E19950",
"d c #E39B51",
"f c #E59B51",
"g c #E39C50",
"h c #E69C50",
"j c #E79F54",
"k c #E89E53",
"l c #E99F54",
"z c #E7A054",
"x c #E8A054",
"c c #EBA357",
"v c #EDA357",
"b c #ECA557",
"n c #EBA358",
"m c #EDA558",
/* pixels */
"77ecmc77rcmb97eahhhhh777cmciuu77eccl777uuuccj777uuicccuiu757lcc757cccuuuuuu757hch757hhh735hlhuu9",
"757vmn77ecmm757ahhhhh777cmcuau777ccc757ihhccl757uuucccadu557cnc757cmcuiuuuu557jch757hkh535hchuuu",
"e7evmc77ecvce77ahahhu77ecmcuaue7eccl777uuijcj777iuujccuuu777hcl757lccuuuuuu557hlh757hhh757hjhrrr",
"cvchhauii777jcchhae7ecccaihiuucccuuuiii777uuuuuiccluuu757hchiuu757uuu757hhhuuu757ruruuuhhhuuu555",
"mmmhuuhhi777ccchha757vmnauahiicccuuuihu757iauiuucvcuuu557cvliuu755uuy535kccuuu535uuuuwujcjuuu555",
"cccaiihhie7ejcjhfue77cccuuuiuuccluuuuuu777uuuuuulczuuu757clhuuu757uau755hchuuu757y77uuuhhhuur555",
"iaue77kccauiuhh777uaiufue77777ugu777uuuhkh777uuuuuu757uuuuur757uuuhlhuuuuuuhhhfhh5259uu755555igh",
"iiu757cccuuuahi777uaiaau777757uhu777uiulck757uuuuuu755uuuuuu525uuuccluiuuuuhlhhlh5257u9535525hjh",
"iui777kcliuuuuu77euaiuap777777iiu777uiuhjh777uuuuuu757uuuu9r757uuuhjhuuuuuuhhhhhf7559uu755555fhu",
"cchuuiuuucch757iaiccc777uuijlh757uuuhlhuuuhcjuuu557uuujch745hkhjch757uuu557uuu557uurhhg979uhuuuu",
"ccluiiueucmc757iuicvc757uuucvc757uiilcluuucvcahu525uuuccz725jcjccc525uuu525uuw525uuuhhhrruhjhuuu",
"ljjuiuuuulcl777uuujlk777uuucck777iuuhzluuuccjuiu757uuuhjh735hkhhhh757uuu757uuw755977uhh77rfhfurr",
"777hcjiuu777uuujchuuuuuuhjluuuuuuhjhuuruuuuuu777uuuhkh777777uuu555wuuuuuihh757uuufhiwuu5359u7555",
"555cccuiu757uiicccpuuuiulccuuuuuukchuu9uuuuuu755uaahhh555557uuu523uuuuuuhlh525uuuhhhuuu5257u7524",
"777kcjuiu777iuukcjiuuiuujcjuuuuyehhhuuuiuuuuu555uuuuuu757775wuu7557uuuuufhd7579e7fhfrr75557u7555",
"ccluiu757uuujcjuiu777klhuuu777hjhuuu757hjh757uuu777775uuuhhhuuuuuw555uuu757uuuhiuuu95457w75557e7",
"vccuuu755uuuccluui757ccjuuu757jchuuu537jch525uiu555555uuulcjuuuuuu5359uu525uuuhhhuuu524uuu5257u7",
"jcjiuu777uuuhlkuuu777hlhuuu777hjhuuu757hjh757uuu755577uuuhlhuuruuu5559uu5577uughh7u9555797555777",
"777uiuhjhhlhuiu777uuuuuu777uuu777uuuuu9757uuuhhhuuuhjhhhhuuu755hjhuuuhlhuuu745uu75559u95559u9ufd",
"557iuiccccclguu557uuuuiu557uhu535ruuuur525uuulchuuuhcjhcjuuu425lcjueucccuuu5247u7425uuu524ruuhhj",
"777uuuhjhhjjuuu777uuuuuu757uiu557yuuuur755uuuhjhuuuhhhhjhw97757hjhu77hzhuuu5559u95557u9555777hhh",
"iiu777777uuu757hlhhch757uuuhkiuuruuuhchuuu757uuuhlhuuy777555hjhuuuuu9555555ru7hhhihf979iiu777555",
"uiu555525uuu555hczccl525uaujlhuuuuuucccuuu525uuuccluuu525525jcju77uuu524225uuuhhhhkh99uhhhuuu422",
"uuu777757uiu757hlhhlh757uuuhhluuuuuulchruu755uuujchuuu757755hhhu9u9u9555555ruuhhhuhu797udu797525",
"lchuuuhhh757hjhuuu777uuu557uuuuuu737uuuuuuhki755uuu757uuuuur9wwwu75247uuhjhhhhuuw5559ur555555777",
"ccliuulcj525lcjuuu535uuu535uuuuuu525uuuuuiccj525uiu522uuuuuuuu9uuu422ruuhccjchu99522uuu522222777",
"hjhuuuhjh757hhhuuu777wuu757uuuuuu5357uuuuuhjh725wuu555uuuuuuuuwuuu5557u7hhhhjhe775357uw555525797",
"775557hjhuuw757uuuhlhuuuuuu7555557ruhhh555557wuuruuu9udhhhhh725hjhuuuruuwuruue5259ue525ihu977ufu",
"555545kchuuu425uuuhjhuuuuuu522555uuukch525225uuuuuuuuuljhlch525hjhuuuueuuuuru92227u7223hlhuuuffd",
"777757hjhuuu755rrefhhuuuruu755777wuuhhg755755uu97e799uhhfhhh525hhdyuuuuu9u9777525797525dhd777iuu",
"uuuhhhuuu557hzh755ruuhkh555yuujjhhhh757uuruffuuu525hhhuu7555uy9hlh525hch55552579uhhu779797425799",
"uuuccluuu525hch5259rrhch523euuccjhch525uuuklkuuu525jchuu9422uuuhjh424hch5222227uuhlhuy9qu7222797",
"uuuhkhuuu757hhu755wurhjh725uuuhjhuhu755uu9ikhuuu557hjh97r5259w9hlh535uhf745555977uff7779u7524777",
"uuu757uuuhhfuuuuuughhuuuueuuuwuuu7577uuuuu555555ruu9uu525ru95559uu7r9545r97fhdw975257u95257w7525",
"uuu5257eujljuuuuuuhhhuewuu79uuuuu525ruuuuw222225uuu7r7222uu9225yu7wur222ruuhjhwuu222uuu2227u7222",
"uuu555u7rhhhuwuuwuhhhueuuu7ee7uu95559u7uu9545555797uur5257u7555w977ur52577rhhh7ee5257u9222797542",
"555dhhhhhuuu755hhhuuu757hjhuu7557hkhfhuhhhuuu9ur555uuu977hhf7u9555hhfr7977ee97525ee77e7777ihde77",
"325hcchjkuuu525jcjuuu525jcjuuu425lvcjhhjcluuuuuu522uuuwwrhlhuuu525hchuuu7e77u7222eu7wuu977dhhrwu",
"755fhhhhh977525hhfuuu557gjhwur557hlhhhhjjhw99ru7535e9e777ihh7r7755fhh977e7e797522777777777ihu777",
"uhd7579uu5359ur555557uur755dhf7wuuu7557uuuuu9545uhi527hhh997525uhu7u7525fhf525777ufu525uhu997522",
"uhh5257uu524uuu532525uuu524hchuuuuu95249uuuiu524hjh425hchuu9522ufi9ue222hlh522777hhh222hhf977222",
"uid7559uu7559uu755557uuu745ujhu9wuu9525uuruu9545uuu525uhd9795259u97r7525uhu525777ufu522uhu777522",
"hhhurughhu79w9uw77fhhhhhw777uu555uuur99w77525wuu5257u99u9525ruwhhu5259u7555797duu777777797225udu",
"jjhuuuhhhuuuuuuu9whjlkchruruuu522ruuuuuuuw224ruu2227uwer7223uuuklh522uu72227uuhhd7777r7797222dhh",
"hhfuuuhhhue9997w99dhhhhhu9uuuu5557u9799u775557u9525er9799525ur7fhd7357775257u7ufu77eee7777225uuu",
"757urrhhfur7525euuuu9757hhhuuu7e7fhf797525uhhhhu79e9ruhhd7779ue5259u7525ihufhu525525uiu5227r7522",
"425w77hjhuuu2257uuiuu222hchghhw79hhhr9e222hlhhhfu97uuuhlh77u9u72227uw222hkhhlh222224fhi2229u7222",
"755uw9ufu7u9557uu9uuu745hjhufd7e9ddd997535uhfiiu7779wwhhf7779r73257u7555uduufu555225duu5247w7222",
"979hhhur7557dhhhhh757uuu9r75259u7777ihf997525777hhi522797525hhu777777ihu525225uiu777525777dhu777",
"r9uhjhuu9525hlhhjh525uuu9772227e7777fhhuuu222977hjh222797225kch777999hhf222222uhd997222797hjh777",
"9e9hhh977525idiuhd755uir7ue52479e997ufu777522ruwihu522797525dhi777777ihu522423uuu777522777uhi777",
"hhhuu7555wu7777525dfuhhd79u777dhdrw9545797e77uhu525777777ihu522799322e77777797225777uuu222777222",
"llh9u9425uur797222uhihlhuuuw79kljuuu2227u9u99hkf2227ruuu7hlf2227772227779ur9u7222777ufu222777222",
"hhh7775259u9er7525uiuhhd779777hhh9775357u7777hhd522797777uhu525797535777777779224777rur223777422",
"rw9555797hhhee79ruhhh7ee525ihu555525777hlh5557977eeijf525797777dhf777dhu525uhd777777222ufu7779uu",
"rw9422uuuhlh77u99rhlhwrr222hlh2222229u7hck52279797rhjh222797777hhh779lch223fjf777777222dhd777ufd",
"9u9535e99hhd97r799hhh999535dhu555545977hkh5259u9777uhu524777e77uhd777uhu525uhu7777r7222uuu777uuu",
"5559u7555555777dhh9u9225997ee7e99777uhu9rw999dfu525777777525fhh9975222227777e7224ddd777222222777",
"2229u9422225777hlh7e72229u9779wur999fhh979799fhh422777ru9222hjh997222222797777555dhf797222222777",
"5459u9522225797hhd7774247977e77779r7uff779777uhi525777777525dhu797422422777777222ddd777222222777",
"979dfu779525ihu979fhf9779u7545224dhu525777udu777777udu522797ew7522uuuddue77uk9$+%7772229uu777uru",
"9erhhf799224fjh777hjhuuuuu9222222djd4229ruhhf77779ufhd4229u9777222fhfhhh97ehcd#.+7u7222udd997udd",
"r77ufu777525udu777ufu97e797424425uhd525977ihu777777udu5227w9777222uiuduu777dh9$+$5e7222udr777rdd",
"fhi5257777975457w7555797525777uuu7777975257r7524425777777ddu777777777425797422777222777777222776",
"hjh422777wuu2227u74227772227e7hlh777wuu322777222222777777hhu7777779u72227u7222uu7222777797222777",
"fhd545777779555797425797522777udu777799555rw7525422777777duu7777777972227e7224777222777777222777",
"977799dfd524r97fdu779dhf777797525797425dhhffi777udu525uhu225777dhu224uhw225udd777wuw777222udr222",
"7e799rfhf2227w9hhd979hhh9977972227u7222hlhhhf977fhd222fhd222779hlh222jch222hjd777udd777222uhd222",
"777997ddu225797uuu777uuu777797222797525dhidiu777ddu524udd222777ufu222999422ddu7779w97772229u9222",
"422797523er7r97222797224224uhu777uuudhd777222222777777777222ddd2227u7$o$9hu222777222775$#%7r7222",
"2227u9222997ru7222797222222dhd777fduhjh777222222777799777222dhd2227i7o +dcd2227972227u7#X#7u7222",
"5257r9522797777522797222225uuu777uduudu777222222777777777422ufu2227u7$O%whr222777222774&#&7r7222",
"r77udf777dfu422777dhu777uuu777222797222797777777uuu222777777222ru9777777777774,,1797<<1474222777",
"999dhh97rfhg222777hlh779ddd77722279722277799r777uhd222777797222dfu777uuu7777u7,><uh9<><7972229d9",
"777uud777ddd224777dhd777uuu777222797422777777777uu9222777777222uur777777777222<<17771<2777222799",
"425777224777777222777524777422777udd777ddd222777222777udd777777777222222dk9#o$2r2&@&477777222222",
"222797222777777222797222777222777fhf977djd222797222777hjf777uur777222222dcw+.+5i5$o$7i9797212222",
"522777522777777422777422797222777ufu777udu222777222777dfd777547777222222wh9$+$7u2&$*477777222222",
"997223ddu777ddd777224udd777777ufu4242227777972227779772227r7$+%9fu777rd9222777777774&$*222999777",
"7r7222fhd979fjd799222gjg777777dhd2222227777u92227977972227u7+.+9hu757hjh2229uw777ra7$+$222ddd777",
"777222udu777dfu777422dhu777777dfu4222227777775247777772227e4$+%9fw757999222777777772%#*222999777",
"ddd7777772227772227777r7225duu777777ddu222222udd777222777222774222794$O$4972229d9:;;::>9d9<<<777",
"dfd777777222797222797777222dfd777777dhd222222dhd777222797222er72127u4X O7u7212dld;=->>>djw<>,777",
"duu777777422777425777777225ddd777777dfd422222udd7772227772227772227u7$+$7972229w7:;:>>>9d91<<777",
"522222ruu777222udr9dr422777777222udu777ddu7777772229du777udd777uw92229dr222797&$*4777772226679dd",
"222222dhu777222uddufd222797777222ddd777ddd777797222dhd977dhd777dhd222hlh2227u7@X$7r79r9212779ddd",
"442222udu777222dduud9222777777222udu777uuu7777772229dd777wdd7777972229d9222797&@*777774222767999",
"uuu777225udw7777772227779w9222777777222797222222777222222797222*$*2227779d9222777797=&=6w7222777",
"dff777222ddu777777222797wuu222777797222797222222777222222797222$+$222777ddd2229997r7*$*9u9222777",
"ddd7772229dr7777772227779w9422777777222777222222777222222777222*$*2227779u9222777797=*-7r7222777",
"777224777777222522wd97772227779dw222797222777777uddddd777222777355777>;:2222222227774259d9777222",
"797222797777222222ddd777222777ddd2127u9222797777fhfddd777222777777797:-;1222222226777779d9777222",
"777222777777222555udu777222777wd9222676222777777uudud9776222777777777:;:222222222777726999777222",
"222ddu222udu7779dd777222777ddd777222222677777ud92222229999dr777udu7772225247979d92222227779r9222",
"222dhd222ddd777ddd777222777ddd777222222797777ddd2222229d9ddd777dfd7772224249999dd2222227779d9222",
"222dfd222udd777ddd777222777ddd777222222777777ufu222222999rd9777dd97772222229979dw2222227779w9222"
};
