/* XPM */
static char *_150d5256c4246459542927c7bacf43cTsfU2SMODJBpY5Zz[] = {
/* columns rows colors chars-per-pixel */
"96 96 64 1 ",
"  c #5F2D1D",
". c #66331C",
"X c #6A351D",
"o c #6E391E",
"O c #723C1F",
"+ c #783F1F",
"@ c #743D20",
"# c #764020",
"$ c #7C4222",
"% c #824623",
"& c #854924",
"* c #8B4C24",
"= c #914E25",
"- c #945126",
"; c #C4813C",
": c #CA853E",
"> c #D78C3F",
", c #DB8D3C",
"< c #DD913C",
"1 c #E0913E",
"2 c #CC8641",
"3 c #CE8841",
"4 c #D58D44",
"5 c #D88E45",
"6 c #D79046",
"7 c #D99146",
"8 c #DD954A",
"9 c #DF984C",
"0 c #E29643",
"q c #E39844",
"w c #E39846",
"e c #E49845",
"r c #E49945",
"t c #E49947",
"y c #E0964A",
"u c #E1974C",
"i c #E0984B",
"p c #E49948",
"a c #E69B4B",
"s c #E0984D",
"d c #E1994E",
"f c #E19A4F",
"g c #E39B4F",
"h c #E59B4F",
"j c #E39C4F",
"k c #E49C4F",
"l c #E99E4B",
"z c #E89D4D",
"x c #E39B51",
"c c #E59B51",
"v c #E39C50",
"b c #E69C50",
"n c #E79F54",
"m c #E89E53",
"M c #E99F54",
"N c #EAA04F",
"B c #E7A054",
"V c #EEA351",
"C c #E8A054",
"Z c #EBA357",
"A c #EDA357",
"S c #ECA557",
"D c #EBA358",
"F c #EDA558",
/* pixels */
"88yZFZ88uZFS98ykbbbbb888ZFZhgg88yZZZ888gggZZn878gghZZZghg878MZZ878ZZZgggggg878bZb878bbb857bMbgg9",
"878AFD88yZFF878kbbbbb888ZFZgkg888ZZZ878hbbZZM878gggZZZkxg778ZDZ878ZFZghgggg778nZb878bmb757bZbggg",
"y8yAFZ88yZAZy88kbkbbg88yZFZgkgy8yZZM888gghnZn888hggnZZggg888bZM878MZZgggggg777bMb878bbb878bnbuuu",
"ZAZbbkghh888nZZbbky8yZZZkhbhggZZZggghhh878ggggghZZMggg878bZbhgg777ggg778bmbggg778ugugggbbbggg777",
"FFFbggbbh888ZZZbbk878AFDkgkbhhZZZggghbg877hkghggZAZggg778ZAZhgg777ggi757mZZggg757gggg9gnZnggg777",
"ZZZkhhbbhy8ynZnbcgy88ZZZggghggZZMgggggg888ggggggMZBggg878ZZbggg878gkg777bZbggg877gg8gggbbbggu777",
"hkgy88mZZkghgbb888gkhgbgy88888gvg888gggbmb888gggggg878gggggg777gggbMbggggggbbbcbb7579gg777777hvb",
"hhg878ZZZgggkbh888gkhkkg888877gbg877ghgMZm778gggggg777gggggg757gggZZMghggggbMbbMb7478g9757747bnb",
"hgh888mZMhggghg88ygkhgkj888888hhg878ghgbnb888gggggg777gggygu877gggbnbggggggbbbbbc7779gg777777cbg",
"ZZbgghgggZZb878hkhZZZ878gghnZb878gggbMbgggbZnggg777gggnZb777bmbnZb878ggg777ggg778ggybbv989gbgggg",
"ZZMghhgygZFZ878hghZAZ878gggZAZ877ghhMZMgggZAZkbg757gggZZn757nZnZZZ747ggg757gg9757gggbbbgugbnbggg",
"MnnghggggMZM878gggnZm888gggZZm878hggbBMgggZZnghg877gggbnb777bmbbbb778ggg877ggg777988gbb88ucbcguu",
"888bZnhgg888gggnZbggggggbnMggggggbnbggugggggg878gggbmb877777ggg7779gggggbbb777gggcbh9gg7579g8777",
"777ZZZghg778ghhZZZjggghgZZZggggggMZbgg9gggggg777gkkbbb777777ggg745ggggggbMb757gggbbbggg7578g8756",
"888mZnghg878hggmZnhgghggnMnggggggbbbggghggggg877gggggg8788779gg7778gggggcbx7779y8cbcuu87778g8777",
"ZZMghg888gggnZnghg888mMbggg888bnbggg877bnb777ggg777777gggbnbgggggg777ggg777gggbhggg97678987778y8",
"AZZggg777gggZZMggh878ZZnggg777nZnggg757nZb757ghg777777gggMZngggggg7579gg747gggbbb9gg756ggg7578g8",
"nZnhgg878gggbMmggg888bMbggg888bnbggg778bnb778ggg777778gggbMbgguggg7779gg7778gggbb8g9777898777888",
"888ghgbnbbMbghg888gggggg878ggg888ggggg9777gggbnbgggbnbbbbggg777bnbgggbMbggg767gg87779g97779g9gcx",
"778hghZZZZZMvgg777gggghg777gbg757gggggu557gggMZbgggnZnnZnggg657MZngygZZZggg7468g8657ggg756uggbbn",
"878gggbnbbnnggg888gggggg877ghg778iggggu777gggbnbgggbbbbnb998778bnbg88bnbggg7779g97778g9767888bbb",
"hhg787787ggg878bMbbZb878gggbmhggugugbZb9gg777gggbMbggi787777bnbggggg97777779g8bbvhbc989hhg888777",
"ghg777757ggg777bZBZZM777gkgnMbggggggZZZggg757gggZZMggg757747nZng88ggg756757gggbbbbmb99gbbbggg645",
"ggg878777ghg878bMbbMb878gggbbMggguugMZbggg877gggnZbggg777777bbbg9g9g9777777uggbbbgbg898gxg898757",
"ZZngggbbb777bnbggg887ggg777gggggg777ggggggbmh777ggg777gggggg999gg87568ggbnbbbbgg97779gu777777888",
"ZZZhggMZn757MZnggg757ggg757gggggg757ggggghZZn757ghg745gggggggg9gg9544uggbZZnZbg99745ggg754555888",
"bnbgggbnb877bbbggg8889gg777gggggg75wwgggggbnb8579gg777ggggggy89ggg7779g8bbbbnby887578g9777757898",
"777778bnbgg9777gggbMbgggggg777777ug7gggg777779gguggg9gxbbbbb757bnbgggggg9guggy7579gy757hbg988gcg",
"777767mZbggg647gggbnbgggggg745777ggMbgg,pp557gggggggggMnbMZb747bnbggg9yggggu995458g8545bMbgggccx",
"777778bnbggg877uuycbbgggggg87788gggMgwwwp>077gg98u899gbbcbbb757bbbig99g99g9888757898757xbx888ggg",
"gggbmbggg778bBb757uggbmb777gggbbzppp7pwwp7,ccggg757bbbgg8777gg9bMb767bZb77775789gbbg889898657899",
"gggZZMggg757bZb7579uubZb757gggZZzpM8777777755ggg747bZbgg9655gggbZb747bZb7555558ggbMbgi99g8545898",
"gggbmbggg877bbg8779gubnb757gggbnzpp87777777,,00wwww0777<0e57999bMb757gbc767777988gcc8889g8756888",
"ggg877gggbbcggggggvbbgggggggg9ggzwpp77777*+O+---&&%+777<<pg87779gg8u9767u98cbx9987578g9757898757",
"ggg7478ygnMnggggggbbbggggg89g9ggg758ig777*o.o&=*$$$X777<<lgy557ig89gu545uggbnb9gg545ggg4458g8555",
"ggg777g8ubbbg9gg9gbbvggggg8yy8gg9778i77*&&+O@*=*%%%@777<<7777779988gu75788ubbb8yy7578g9555898765",
"777xbbbbbggg777bbbggg777bbbgg8777bmbbbk#XO$$$$$$OOO$$$7765550g9777bbcu8988yy98757yy88y8888hbx888",
"547bZZbnmggg757nZnggg757nZbggg657MAZZZV#.O$$$$$$OoO$%%555555egg757bZb9gg8y88g8545yg89gg988xbvu9g",
"777bbbbbb988757bbcggg777vnvggu77ezzzkzp#X@$$$$$$@O@$$$555555<55p77cbb988y8y898755888888888hbg888",
"gbx777ggg7579g8777777ggu777vbc89b%O$@@+$$$$$$+O@%&&$$$$$$$$5555ebg8g8757cbc757888gcg757gbg998655",
"gbb7578gg757ggg755747ggg756bZbggZ$XOX.X$%$$$$@OO&&&$$$$$$$$55550ch9gy545bMb745888bbb545bbc988545",
"ghx7779gg7779gu777777ggg767gnbg9b$O$@O@$$$$$$@O@&&&$$$$$$$$55550g98u8757gbg757888gcg745gbg888655",
"bbbgugbbb989ggg988cbbbbb9888gg775$X@%%%$$$@@@OO@%&%$$$@O@&*&555zbg7579g8777898xgg888888898556gxg",
"nnbgggbbbgggggg999bnMmZbuguggg75>@.O&&&$$$@OOOO@&&%%%$OO@***555g9b745gg85458ggbbx8888u8898545xbb",
"bbcgggbbbgy9998g99xbbbbbg9gggg775$X@%&%$$$@O@@@@%&%$$$@O@&*&555zbx7578887578g8gcg88yyy8888557ggg",
"777guubbcgu8757ygggg9777bbbggg8y7*%&@O+$$$$$$%%%OO@@O@$$$888559w579g8757hbgcbg757757ggg7558u8655",
"657988bnbggg7578gghgg545bZbvbb98777%OoO$$$$$$%%%OoOOO@$%$8888885458g9545bmbbnb545546cbh5459g8544",
"777g99gcg8g9777gg9ggg767bnbgcx8y7777+O@$$$$$$%%%@O@@@@$$$888wg86578g8777gxggcg767557xgg756898555",
"989bbbgu8777xbbbbb777ggg9u87579gk777%O$O@@%%%$$$%&%$$$@X7788Nbg888888hbg757556ggg888756888xbg887",
"u9gbnbgg9757bMbbnb747ggg9885458y888e%@$@@@%&&$$$%&%$$$O.7747mZb888999bbc545545gbx998545898bnv888",
"9y9bbb988757hxhgbx777ghu8gy75689y99e%@$@@@%&%$$$%%%$$7777777xbh888888hbg755655ggg888755788gbg888",
"bbbgg87769g8888747xcgbbx89g888xbxu9g7757$$$%$@O@$$$@@77777bg755898555y888888985578889g9545888555",
"MMb9g9657ggu898545gbhbMbggg989mMngggggg5@@$%$@oO$$$OO77777Mc54588854588899u9g8545888gcg545888544",
"bbb8887579g9uu8757ghgvbx889888bbb98ggggggg$$$@+@$$$7777770bg757898757888888889556888ug9555888755",
"u99777898bbbyy89ugbbb8yy757hbg77775ggpgggg$X+&&&***7777<<p98888xbc888xbg757gbx888888555gcg888ggg",
"ug9655gggbMb88g99ubMb9uu545bMb5555559g8bZ1O X&**--=777<45898888bbb889MZb545cnc888888545xbx889gcc",
"9g9757y99bbx98u899bbb999757xbg777767988bm,$O$&&&*=*777,56888y88gbx888gvg757gbg8888u8555ggg8779gg",
"7779g8777767888xbb9g9557998y88899888gbg9up,<8888555767p88757cbv9987555558888y8556xxx888555555888",
"5559g9655557888bMb8y84459g98899gu999cbb989898888555e78ug9545bnb998545544898888777xbc898544545788",
"7679g9755557898bbx8886568988y8888998gcc88988<888445w88888757xbg898655655887888545xxx888555555777",
"989xcg889757hbg989cbc9889g8767556xbg757888gxlpppbbwkxg755898y98755gggxxgy88gm9ccc7875559gg888ggg",
"9yubbc899556cnb888bnbggggg9555545xnx6459ugbbc888899cbx6459g9888545cbcbbb98ybZxccc7g7545gbc998gxb",
"u88gcg888757gxg888gcg98y898656657gbx747988hbg888878gxg755899888555gggxgg888xb9ccc7875559xu778uxx",
"cvh757888898767898777898757888ggg8888987578u8756655888888xxg888888888657898655777545788888545887",
"bnb6458889g95558g86558885458y8bMb8889gg545888555545888888vbg8888889g85458984449g8445888898445787",
"cbx767888889767898657898755888gxg888899777998657655888888xgg8888888985558y8556888555888888555777",
"988899xcx756u98cxg889xbc888898757898657xbbccg888gxg657gbg556888xbg546gv9547gxx888gg9887545gxu555",
"8y899ucbc545899bbx989vbv9988985458g8545bMbbbc988cbx545cbx545889bMb545nZb534vnx877gxx887555gbx544",
"888998xxg557898ggg888ggg888898555898657xbhxhg878xxg756gxx545888gcg545999655xxg7779g9777444999555",
"655898755yu8998555898556546gbg888gggxvx888555555888888888555xxx5558g44449b9555787555787ccc7u7555",
"5558g9545998ug8545898545445xbx888cxgbnb888555545888899888545xbx4458h7444xZx5448974448g7ccc7g8545",
"7578u9755898888755898555557ggg888gxggxg888555555888888888655gx95557g7444gbu545777445786ccc797555",
"u88gxx888xcg655788xbg888ggg888555898555898888888ggg545888887555ug9887444777777::3897223777545888",
"999xvv98ucbv545888bMv889xxx88854589844588899u888gbx545888898545xcg88844g8778g8:;2gb92;28984459x9",
"888ggx888xxx556888xbx888gg9877555898655888888878gg9555888888555ggu778787887555223c77334777544899",
"656887556888888555888656887655888gxx878xxx555877555888gxx888887887555555xm94445ucccc787887444444",
"555898545888888545888545887545888cbc988xnx545898545788bnc888ggu787545544vZ44447ccccc8g9898444444",
"755888655888888655888655998555888gxg888gxg545788555887xcx8887c7887555545gb44447gccccc77787444545",
"998555xxg888xxx887556gxx888878gcg6565557888975558889885557u7ccc9bg777ux9555777777786ccc455999777",
"8u8545cbx989cnx899545vnb887778xbx5455457888g94448988985448g7ccc9bg777bnv5449g9877uk8ccc444xxx877",
"8887459xg888xcg878655xbg788887xcg7555557787887567887885557y6ccc9c9777778445777887775ccc455999777",
"xxx8878885557875558888u8557xgg878888xxg555545gxx7775457785557775457977777974459x97777779x9222788",
"xcx888888545899545898888545xbx887788xbx544445xbx887444898445yu94348g77777g7434xM7777777xn92;:787",
"xgg788888655788657888888557xxx887887xcx655555gxx8775557875557775557g77777975448777777779x9322787",
"755555gg9888556gxu9xu655888788555gx9888xx98888885559x98779xx877gg95559xu545897444697777555777gxx",
"544545xvg888545gxxgxx545898888545xxx878xxx888898545xcx988xvx988xbx545vnv5448g74447u9ug9444889xxx",
"665555gxg888545xxggx9555887888555gxg888ggg8778885559xg889gxx7778975559g954579744479777754477799g",
"gg9888557gxg7778885557889995558888885558975555558885555558985547774557779g9545744897ccc997445788",
"xcc888545xxx9988875458999g9544788897445898544545788544445898454777455898xxx4449999u7ccc8g9544788",
"xxx888555gxg8778885557889g96457887875457875555557875555457875647775557779g9444777797ccc7u8544789",
"8885568878875557569x98775558779xg544898555789877gxxxxx7775557877667977774545444457977569x9777455",
"898545897787544555xxx987544778xxx4348g9545899877cbcxvx878544797887797777344444444797778gx9777444",
"7885557888975557769x9777555788gx9444998555777777ugx9x978855577777777777;444544455777777999787544",
"545xx9545gxg888gxg877555877xxx9974445557877779x95555559999xg7779x97775456568989x95555457779g9444",
"445xbx545xxx788xxx888545887xxx887444445997777xxx544445gx9xxx777xcx777555655999gxx5444557779x9544",
"545gcx545gxx777xxx888555887xxx777444445787777gxg544445999xxx777gxg7775555559979g9544555777999544"
};
