/* XPM */
static char *b87ae51cc9c04be0b34f04e420c590eaEyWRKXqO7Rf0ao3a[] = {
/* columns rows colors chars-per-pixel */
"96 96 68 1 ",
"  c #5E2C1B",
". c #612E1D",
"X c #66331C",
"o c #6B351D",
"O c #6E391E",
"+ c #723C1F",
"@ c #783F1F",
"# c #6A3520",
"$ c #743D20",
"% c #783F20",
"& c #764020",
"* c #7C4222",
"= c #824623",
"- c #854A24",
"; c #8B4C24",
": c #914E25",
"> c #8E5026",
", c #935126",
"< c #A75F2A",
"1 c #A95F2A",
"2 c #AE662E",
"3 c #B1682E",
"4 c #C4813C",
"5 c #CA853E",
"6 c #D6893A",
"7 c #DB8D3B",
"8 c #DE923F",
"9 c #E1923F",
"0 c #CC8641",
"q c #CE8841",
"w c #D58D44",
"e c #D88E45",
"r c #D79046",
"t c #D99146",
"y c #DD954A",
"u c #DF984C",
"i c #E29542",
"p c #E49946",
"a c #E0964A",
"s c #E1974C",
"d c #E69A48",
"f c #E79C4A",
"g c #E0984C",
"h c #E0984D",
"j c #E1994E",
"k c #E39B4F",
"l c #E59B4F",
"z c #E39C4F",
"x c #E49C4F",
"c c #E89E4B",
"v c #EA9E4D",
"b c #E39B51",
"n c #E59B51",
"m c #E39C50",
"M c #E69C50",
"N c #E79F54",
"B c #E89E53",
"V c #E99F54",
"C c #EBA04F",
"Z c #ECA14F",
"A c #E7A054",
"S c #EDA251",
"D c #E8A054",
"F c #EBA357",
"G c #EDA357",
"H c #ECA557",
"J c #EBA358",
"K c #EDA558",
/* pixels */
"yyaFKFyysFKHuyaxMMMMMyyyFKFlkkyyaFFByyykkkFFNytykklFFFklkytyVFFytyFFFkkkkkkytyMFMytyMMMyetMVMkku",
"ytyGKJyyaFKKytyxMMMMMyyyFKFkxkyyyFFFytylMMFFVytykkkFFFxbkttyFJFytyFKFklkkkkttyNFMytyMBMtetMFMkkk",
"ayaGKFyyaFGFayyxMxMMkyyaFKFkxkayaFFVyyykklNFNyyylkkNFFkkkyyyMFVytyVFFkkkkkktttMVMytyMMMytyMNMsss",
"FGFMMxkllyyyNFFMMxayaFFFxlMlkkFFFkkklllytykkkkklFFVkkkytyMFMlkktttkkkttyMMMkkkttyskskkkMMMkkkttt",
"KKKMkkMMlyyyFFFMMxytyGKJxkxMllFFFkkklMkyttlxklkkFGFkkkttyFGFlkktttkkktetBFFkkktetkkkkukNFNkkkttt",
"FFFxllMMlayaNFNMnkayyFFFkkklkkFFVkkkkkkyyykkkkkkVFAkkkytyFFMkkkytykxktttMFMkkkyttkkykkkMMMkksttt",
"lxkayyBFFxklkMMyyykxlkMkayyyyykmkyyykkkMBMyyykkkkkkytykkkkkktttkkkMVMkkkkkkMMMnMMtwtukkttttttlmM",
"llkytyFFFkkkxMlyyykxlxxkyyyyttkMkyttklkVFBttykkkkkktttkkkkkktwtkkkFFVklkkkkMVMMVMtwtykutettwtMNM",
"lklyyyBFVlkkklkyydpppvxzyyyyyyllkytyklkMNMyyykkkkkktttkkkaksyttkkkMNMkkkkkkMMMMMntttukkttttttnMk",
"FFMkklkkkFFMytyllt-+-7yykklMFNyyykkkMVMkkkMFNkkktttkkkNFMtttMBMNFMytykkktttkkkttykkaMMmuyukMkkkk",
"FFVkllkakFKFytylkt*X*7tykkkFGFyttkllVFVkkkFGFxMktwtkkkFFNtwtNFNFFFtwtkkktwtkkktwtkkkMMMkskMNMkkk",
"VNMklkkkkVFVytdtte=O=677pkkFFBytylkkMFVkkkFFNklkyttkkkMNMtttMBMMMMttykkkyttkkktttuyykMMyysnMnkss",
"yyyMFNlkkyyykkf;=-@+@==;7NVkkkkkkMNMkkskkkkkkytykkkMBMytttttkkktttukkkkkMMMtttkkknMlukktetukyttt",
"tttFFFklkttykld@o@+O+&$=9FFkkklkkVFMkkukkkkkktttkxxMMMttttttkkktwekkkkkkMVMtwtkkkMMMkkktwtykytwr",
"yyyBFNklkytylkf>=;$@@=*-677ippddditii8ickkkkkyttkkkkkkytyyttukktttykkkkknMbtttuaynMnssytttykyttt",
"FFVklkyyykkkNFScvd2<<;;;@+@,,,--=@@@*@=vNMtttkkkttttttkkkMNMkkkkkktttkkktttkkkMlkkkutrtyuytttyay",
"GFFkkktttkkkFFVkklyt1::;OXO;:-&&&XXX+X&SFMtwtklkttttttkkkVFNkkkkkktetukktwtkkkMMMkkktwrkkktwtyky",
"NFNlkkytykkkMVBkkkyy3;;-@+$;:;===$$$&+=xZvdtykkktttttykkkMVMkkskkktttukktttykkkMMykutttyuytttyyy",
"yyyklkMNMMVMklkyyykkd&X+******+++***;;;&O*ikkMNBkkkMNMMMMkkktttMNMkkkMVMkkktttkkytttukutttukuknb",
"ttylklFFFFFVmkktttkkC$X+***&*&+O+*==;,;O +pkkVFAkkkNFNNFNkkktwtVFNkakFFFkkktwrykyrwtkkktwtskkMMN",
"ytykkkMNMMNNkkcpipdcp&X$***&&&$+$***;;;$X&8piCNMkkkMMMBNMuuyttyMNMkyyMFMkkktttukutttykutttyyyMMM",
"llktyttytkkkytx=@*$$@******@+$=-=*********%X*ikkMVMkkktyttttMNMkkkkkuttttttukyMMMlMnuyullkyyyttt",
"klkttttwtkkkttx&o@XXX*=****$++-;-*********O +ikkFFVkkktwttwtNFNkyykkktwrtwtkkkMMMMBMuukMMMkkkrww",
"kkkytytttklkytx*+&$+$******$+$--=***&&**=*$X*pkkNFMkkkttttttMMMkukukuttttttskkMMMkMkyuykbkyuytwt",
"FFNkkkMMMtttMNt&X$===**&$$$++$=-=***$+$;;;*@-pttkkktttkkkkkkuuukkytwtykkMNMMMMkkutttuksttttttyyy",
"FFFlkkVFNtwtVFt$X@-;-**&$++++$--===*++$;;;$o*pwtklktwwkkkkkkkkukkkrwwskkMFFNFMkuutwwkkktwwwwwyyy",
"MNMkkkMNMyttMMt&X$=-=**&$+$$$$=-=**&$+$-;;=&;pwtukktttkkkkkkayukkktttykyMMMMNMayytetykuttttwtyuy",
"tttttyMNMkkuttt;=-$+@***&&*===++$$+$***&+*8iifkkskkkukbMMMMMtwtMNMkkkakkkkskkatwtukatwtlMkuyyknk",
"ttttrtBFMkkkrwe-==+O+******===+O+++$*=*O.$iwtkkkkkkkkkVNMVFMtwtMNMkkkkakkkkskuwwwykywweMVMkkknnb",
"tttttyMNMkkkytt,:,@+$**&*&*===$+$$$$****+=ittkkuysyuukMMnMMMtwtMMmkkkkkkukuyyytwtyuytwtbMbyyylkk",
"kkkMBMkkkttyMACipt=$&$$$===***===**&$X&8i8vnnkkktwyMMMkkytttkkuMVMtwtMFMtwttwtyukMMkyyuyuyrwtyuu",
"kkkFFVkkktwtMFMtwi=$*$$$=--*&*=-=***+X&ikkBVBkkktwtMFMkkurwwkkkMNMrwtMFMwwwwwwykkMVMkkuukywwwyuy",
"kkkMBMkkkyttMMkyti=$&$$$===&&*===**&$X&8kkMBMkkktttMNMuystwtuuuMVMtetkMntrttttuyyknnyyyukytwryyy",
"kkkyttkkkMMnkkkkkd=@*&&**=*$+$***$$$&$=ikkttttttskkukktwtskutttukkysutrtsuynMbuuytwtykutwtyuytwt",
"kkktwtyakNVNkkkkkf%o@$$$*=*$O+&&&+++$#&9kuwwwwwtkkkysywwwkkuwwtkkyukswwwskkMNMukkwwwkkkwwwykywww",
"kkktttkysMMMkukkud-*-===***$@$***$+$=&-ikutwtettyuykkstwtykytttuuyykstwtyysMMMyaatwtykuwwwyuytrw",
"tttbMMMMMkkktttMMcfcd676&X@-;;;;;*$=8iivMMsukukstttkkkuyyMMnykutttMMnsyuyyaauytwtaayyayyyylMbayy",
"ewtMFFMNBkkktwtNFNkkktw7+ X;;;,,:$o*pNNFFVkkkkkktwwkkkuusMVMkkktwtMFMkkkyayykywwwakyukkuyybMMsuk",
"tttnMMMMMuyytwtMMnkkktt6*+&;;;;:;=*;iMMNNMkuuskytttauayyylMMysytttnMMuyyayayuytwwyyyyyyyyylMkyyy",
"kMbtttkkktetukyttttttkkd776-&=@X&ipppttkkkkkutrtkMltwtMMMuuytwtkMkykytwtnMntwtyyyknktwtkMkuuytww",
"kMMtwtykktwtkkktettwtkkkew7*+%X +pkutwrykkklktwrMNMrwtMFMkkutwwknlukawwwMVMtwwyyyMMMwwwMMnuyywww",
"klbtttukktttukuttttttkkktr7;-;*+=pkutwtskskkutrtkkktwtkMbuyutwtukuysytwtkMktwtyyyknktwwkMkyyytww",
"MMMkskMMMsyukkkuuynMMMMMuypdcfiiickksuuukytwtukktwtykuukutwtskuMMktwtukytttyuybkkyyyyyyyuywwtkbk",
"NNMkkkMMMkkkkkkkkkMNVBFMskskkktwtkkkkkkkkuwwrskkwwwykuasywwekkkBVMtwwkkywwwykkMMbyyyysyyuywwwbMM",
"MMnkkkMMMkauuuykuubMMMMMkukkkktttkkuyuukyytttykutwtasuyuutwtksynMbtetyyytwtykyknkyyaaayyyywwtkkk",
"tttkssMMnksytwtakkkkutttMMMkkkyaunMnyuytwtkMMMMkyuauskMMbyyyukatwtukytwtlMknMktwttwtklktwwysytww",
"rwtuyyMNMkkktwtykklkkwwwMFMmMMuyuMMMsuawwwMVMMMnkuykkkMVMyykukywwwykuwwwMBMMVMwwwwwrnMlwwwukywww",
"tttkuuknkykutttkkukkktrtMNMknbyaukbbuuytetkMnllkyyyuuuMMnyyyusyewtykytttkbkknktttwwtbkktwryuywww",
"uyuMMMksytttbMMMMMtttkkkusytwtukyyyylMnuuytwtyyyMMltwwyuytwtMMkyyyyyylMktwtwwtklkyyytwtyyybMkyyy",
"sukMNMkkutwtMVMMNMtwtkkkuyywwwyayyyynMMkkkwwwuyyMNMwwwyuywwtBFMyyyuuuMMnwwwwwwkMbuuywwwyuyMNMyyy",
"uauMMMuyytwtlblkMbtttklsykatwryuauuyknkyyytwwskulMktwwyuytwtbMlyyyyyylMktwwrwekkkyyytwwyyykMlyyy",
"MMMkkytttukyyyytwtbnkMMbyukyyybMbsuutrtyuyayykMktwtyyyyyylMktwwyuyewwayyyyyyuywwtyyykkkwwwyyywww",
"VVMukurwtkksyuywwwkMlMVMkkkuyuBVNkkkwwwykukuuMBnwwwyskkkyMVnwwwyyywwwyyyuksukywwwyyyknkwwwyyywww",
"MMMyyytwtukuasytwtklkMMbyyuyyyMMMuyytetykyyyyMMbtwwyuyyyykMktwtyuytetyyyyyyyyuwwryyyskswweyyytww",
"suutttyuyMMMaayuskMMMyaatwtlMkttttwtyyyMVMtttyuyyaalNntwtyuyyyybMnyyybMktwtkMbyyyyyywwwknkyyykkk",
"skutwwkkkMVMyykuusMVMusswwwMVMwwwwwwukyMFBtwwyuyuysMNMwwwyuyyyyMMMyyuVFMwwenNnyyyyyywwwbMbyyyknn",
"ukutetauuMMbuysyuuMMMuuutetbMkttttrtuyyMBMtwtukuyyykMktwryyyayykMbyyykMktwtkMkyyyysywwwkkkyyykkk",
"tttukyttttttyyybMMukuwwtuuyaayauuyyykMkusuuuubnktwtyyyyyytwtnMMuuytwwwwwyyyyaywwrbbbyyywwwwwwyyy",
"wwwukurwwwwtyyyMVMyaywwwukuyyuuksuuunMMuyuyuunMMrwwyyyskuwwwMNMuuywwwwwwyuyyyytttbMnyuywwwwwwyyy",
"trtukutwwwwtyuyMMbyyyrwryuyyayyyyusyknnyyuyyykMltwtyyyyyytwtbMkyuyrwwrwwyyyyyywwwbbbyyywwwwwwyyt",
"uyubnkyyutwtlMkuyunMnuyyukytrtwwrbMktwtyyykbkyyyyyykbktwwyuyauytwwkkkbbkayykBunnntytwwwukkyyykkk",
"uasMMnyuuwwrnNMyyyMNMkkkkkuwwwwwwbNbrwwuskMMnyyyyuknMbrwwukuyyywwwnMnMMMuyaMFbnnntkywwwkMnuuykbM",
"syyknkyyytwtkbkyyyknkuyayuyrwrrwtkMbtwtuyylMkyyyyyykbktwwyuuyyywwwklkbkkyyybMunnntatwwwkbsttysbb",
"nMltwtyyyyuytrtyuytttyuytwtyyykkkyyyyuytwtysytwrrwtyyyyyybbkyyyyyyyyyrwtyuyrwwtttwwwyyyyyywwwyyt",
"MNMrwwyyyukkwwwykyrwwyyywwwyayMVMyyyukkewwyyywwwwwwyyyyyyMMkyyyyyyukywwwykywwwkkywwwyyyyuywwwyyt",
"nMbtrtyyyyyutttyuyrwtyuytwwyyykbkyyyyuutttsuytwtrwwyyyyyybkkyyyyyyyuywwwyaywwryyywwwyyyyyywwwyyy",
"uyyyuubnbtwrsuynbkyyubMnyyyyuytwtyuyrwtbMMnnlyyykbktwtkMkwwtyyybMkwwrkMkwwtkbbyyykkuyytwwwkbswww",
"yayuusnMnwwwyuuMMbuyuMMMuuyyuywwwykywwwMVMMMnuyynMbwwwnMbwwwyyuMVMwwwNFMwwwMNbytykbbyytwwwkMbwww",
"yyyuuybbkwwtyuykkkyyykkkyyyyuywwwyuytwtbMlblkyyybbktwrkbbwwwyyyknkwwwuuutwwbbktttukutytwwwukuwww",
"rwwyuytweasysuywwwyuywwrwwrkMkyyykkkbMbyyywwwwwwyyyyyyyyywwwbbbwwwykwwwwuBkwwwtytwwwtatnnntstwww",
"wwwykuwwwuuyskywwwyuywwwwwwbMbyyynbkMNMyyywwwwwwyyyyuuyyywwwbMbwwwyltwwwbFbwwwyutwwwyktnnntkywww",
"twtysutwwyuyyyytwwyuywwwwwtkkkyyykbkkbkyyywwwwwwyyyyyyyyyrwwknkwwwyktwwwkMswwwtttwwwtyrnnntstwww",
"syykbnyyybnkrwwyyybMkyyykkkyyywwwyuywwwyuyyyyyyykkkwwwyyyyyywwwskuyyywwwyytttt55qyut00qtttwwwyyy",
"uuubMMuysnMmwwwyyyMVMyyubbbyyywwwyuywwwyyyuusyyykMbwwwyyyyuywwwbnkyyywwkyttyky550kMu050yuywwwubu",
"yyykkbyyybbbwwryyybMbyyykkkyyywwwyuyrwwyyyyyyyyykkuwwwyyyyyywwwkksyyyyyyyytwww00qnttqqwtttwwwyuu",
"rwtyyywwryyyyyywwwyyytwryytrwwyyykbbyyybbbwwwyyywwwyyykbbyyyyytyytwwwwwwbBuwwwwsnnnntytyytwwwwww",
"wwwyuywwwyyyyyywwwyyywwwyytwwwyyynMnuyybNbwwwyuywwwyyyMNnyyykkstytwwwwwwbFwwwwtnnnnnyluyuywwwwww",
"twwyyytwwyyyyyyrwwyyyrwwyuywwwyyyknkyyykbkwwwyyywwwyyybnbyyytntyytwwwwwwkMwwwwtknnnnntttytwwwwww",
"uuywwebbkyyybbbyyywwrkbbyyyyyyknkrwrwwwyyyyuywwwyyyuyywwwtstnnnuMkttysbuwwwtttttttyrnnnwwwuuuttt",
"ysywwwnMbuyunNbyuuwwwmNMyyyyyybMbwwwwwwyyyykuwwwyuyyuywwwyktnnnuMktttMNMwwwukkyttsxynnnwwwbbbytt",
"yyytwwkbkyyybnkyyyrwwbMktyyyyybnkrwwwwwtyytyytwrtyyyyyewwtarnnnunutttttuwwwtttyytttwnnnwwwuuuttt",
"bbbyyyyyywwwyyywwwyyyysywwtbkkyyyyyybbkwwwwwwkbbtttwwwtyywwwtttwwwtutttttstwwwubuttttttubu000tyy",
"bnbyyyyyywwwyuywwwyuyyyywwwbMbyyyyyybMbwwwwwwbMbyytwwwyuywwwasuwqwyktttttktwqwbVtttttttbNu045tyt",
"bkktyyyyyrwwyyyrwtyyyyyywwtbbbyyyyyybnbrwwwwwkbbyytwwwyyywwwtttwwwtktttttutwwwuttttttttubuq00tyt",
"twwwwwkkkyyywwrkbskbsrwwyyyyyywwwkbkyyybbkyyyyyywwwubkyyykbbyttkkuwwwubswwwyutwwwruttttwwwtttkbb",
"wwwwwwbMkyyywwwkbbknbwwwyuyyyywwwbbbyyybbbyyyyuywwwbMbuyybMbyyybMbwwwMVMwwwyktwwwtsuskuwwwyyubbb",
"rrwwwwkbkyyywwwbbkkbkwwwyyyyyywwwkbkyyykkkyttyyywwwubkyyykbbtttyuywwwukuwwwtutwwwtuttttwwwtttuuk",
"kkkyyywwtkbkyyyyyywwwtyyuuuwwwyyyyyywwwyuywwwwwwyyywwwwwwyuywwwtttwwwtttubuwwwtwwyutnnnukywwwtyy",
"bnnyyywwwbbkyyyyyywwwyuyukkwwwyyyyutwwwyuywwwwwwyyywwwwwwysywwwtttwwwyyybbbwwwuuuustnnnukuwwwtyy",
"bbbyyywwwkbkytyyyywwwtyyukurwwyyytytwwwtyywwwwwwyyywwwwwwyyywtwtttwwwtttukuwwwttttutnnnysywwwtyu",
"yyywwryyyyyywwwtwtubuyytwwwyttubkwwwyuywwwyyuyttkbbbbbyytwwwtytttttuttttwwwwwwwwwtyttwtubutttwww",
"yuywwwyuyyytwwwwwwbbbyyywwwtyybbbwqwykuwwwyuuyttnMnbbbyyywwwtyyyyytuttttqwwwwwwwwtttttukbutttwww",
"yyywwwtyyyyywwwtttkbkttywwwtyykbuwwwuuywwwtytyttskbkbutyywwwtttttytyttt4wwwwwwwwwttttttuuutytwww",
"wwwbbkwwwkbkyyyubbyyywwwyttbbbyytwwwwwwtyttttkbkwwwwwwuuuubktttkbktytwwwtwruuyubkwwwwwwtttukuwww",
"wwwbMbwwwbbbyyybbbyyywwwyytbbbyytwwwwwwuuttttbbbwwwwwwububbbtttbnbtttwwwtwwuuubbbwwwwwwtttubuwww",
"wwwbnbwwwkbbtttbbbyyywwwyytbbbtttwwwwwwtyttttknkwwwwwwuuubbbtttbbktttwwwwwwuutubuwwwwwwtttukuwww"
};
