/* XPM */
static char *f87e860db0b54a02f42c6f5961d8d767hotdsoqSU3bZrPuj[] = {
/* columns rows colors chars-per-pixel */
"96 96 38 1 ",
"  c #C4813C",
". c #CA853E",
"X c #CC8641",
"o c #CE8841",
"O c #D58E44",
"+ c #D98F45",
"@ c #D79046",
"# c #D99146",
"$ c #DD9449",
"% c #DC944A",
"& c #DC954B",
"* c #DE964A",
"= c #DF974C",
"- c #DF974F",
"; c #DF984B",
": c #DF984C",
"> c #E0964A",
", c #E1974C",
"< c #E1974F",
"1 c #E0984B",
"2 c #E39B4F",
"3 c #E59B4F",
"4 c #E39C4F",
"5 c #E49C4F",
"6 c #E39B51",
"7 c #E59B51",
"8 c #E39C50",
"9 c #E69C50",
"0 c #E79F54",
"q c #E89E53",
"w c #E99F54",
"e c #E7A054",
"r c #E8A054",
"t c #EBA357",
"y c #EDA357",
"u c #ECA557",
"i c #EBA358",
"p c #EDA558",
/* pixels */
"**>tpt**,tpu=*>599999***tpt322**>ttw***222tt0***223ttt232*#*wtt*#*ttt222222*#*9t9*#*999*+#9w922=",
"***ypi**>tpp*#*599999***tpt252***ttt***399ttw***222ttt562##*tit*#*tpt232222##*0t9*#*9q9*+#9t9222",
">*>ypt**>tyt>**595992**>tpt252>*>ttw***2230t0***3229tt222***9tw*#*wtt222222*#*9w9*#*999*#*909,,,",
"tyt995233***0tt995>*>ttt539322ttt222333***222223ttw222*#*9t9322*##222*#*999222*#*,2,222999222###",
"ppp922993***ttt995***ypi525933ttt222392*#*352322tyt222##*tyt322**#221#+#qtt222#+#2222:20t0222###",
"ttt533993>*>0t0972>**ttt222322ttw222222***222222wte222*#*tw9222***252*#*9t9222*#*22*22:99922,*##",
"352>**qtt523299***253272>*****282***2229q9***222222*#*22222,*#*2229w9222222999799#@#=2:**####389",
"332*#*ttt222593***253552******292***232wtq*#*222222*#*222222#O#222ttw2222229w99w9#O#*2=#+##O#909",
"323***qtw322222**>253254******332***232909***222222*#*222,2,*#%222909222222999997*##=22*#####792",
"tt0223222tt9*#*353ttt***2230t9***2229w92229t0222##*2220t9*#*9q90t9*#*222##*222*#*22>999=*=292222",
"ttw2332>2tpt*#*323tyt*#*222tyt*#*233wtw222tyt592#O#222tte*O#0t0ttt#O#222#O#22:#O#2229992,2909222",
"w002322,2wtw***2220wq***222ttq***3229ew222tt0232*#*222909*+*9q9999*#*222*#*22:*##=**299**,7972,,",
"***9w0322***2220t922222290w22222290922,222222***2229q9******222###:22222399*#*22,79322:#+#=2*###",
"*##ttt232*#*233ttt4222320tt2222,2wt922=222222*##255999#####*222#O+2222229w9#O#22299922:@O#*2*#O@",
"***qt0232***322qt03223220t022222>999222322222###222222*#***#:22*##*22222796*#*=>*797,,*###*2*###",
"ttw232***2220t0232***qw9222***909222*#*909*#*222****%%22299922222:###222%#*22299222=#@#*:*###*>*",
"ytt222*+*222ttw223*#*tt0222*#*0t9222#+*0t9#O#232######222wt0222222#+#=22#O#222999222#O@222#O#*2*",
"0t0222***2229wq222***9w9222***909222*#*909*#*222*###%*2229w922,222###=22*#**22899*2=###*=*###***",
"***2329099w9232***222222***222***222222*#*222909222909999222*##9092229w9212*##:2*###=2=###=2=276",
"*#*323tttttw822*#*222232##*292#+#,22222#O#222wt92220t09t0222@O#wt02>2ttt222#O@*2*@O#222#O@,22990",
"*%*222909900222***222222*#*232###12222,*#*222909222999909:=**#*9092**9e922*###=2=###*2=###***999",
"332%*%***222*#*9w99t9*#*2229q322,2229t9222*#*2229w9221***###90922222=######,2*999397=*=332***###",
"232####O#222###9tettw#O#2520w9222222ttw222#O#222ttq222#O##O#0t02**222#O@#O#2229999q9==2999222@OO",
"222****#*232*#*9w99w9*#*22299w222222wt9,22*##2220t9222*#**##9992=2=2=###*#*,22999292*=*262*=*#O#",
"wt9222999*#*909222***222##*222222*#*2222229q3*##222*#*22222,=:::2*#O@*2290999922:*##=2,######***",
"ttw322wt0#O#wt0222#+#222#+#222222#O#222223tt0#O#232#OO22222222=222@OO,229tt0t92==#OO222#OOOOO***",
"909222909*#*999222***:22*#*222222#+#*22222909*O#:22###22222222:222###*2*999909>**#+#*2:####O#*=*",
"****#*90922:*#*2229w9222222*#####*,2999#####**22,222=2699999*O#909222,22:2,22>#O#=2>#O#392=**272",
"####@#qt9222@O#222909222222#OO###222qt9#O#OO#222222222w09wt9#O#9092222>2222,2=OOO*2*OO+9w9222776",
"***%#%909222*##,,,799222222*##***:22998*##*##22=*>*==2997999#O#996122222=2=***#O#*=*#O#696***322",
"222999222##*9e9*##=229q9###>22009999*#*222277222#O*99922*###21=9w9#O#9t9####O#*=2992**=*=*@O#*==",
"222wtw222#O#9t9#O#=,,9t9#O+>22tt09t9#O#222qwq222#O#9t922=@OO222909@O@9t9#OOOOO*229w921=;2*OOO*=*",
"2229q9222*#*992*#*22,999*O#222909292*##22=3q9222##*909=*,#O#=:=9w9#+#297*@####=**277***=2*#O@***",
"222*#*2229972222228992222>222:222*#**22222######,22=22#O#,2=###=22*,=#@#,=*796:=*#O#*2=#O#*:*#O#",
"222#O#*>20w02222229992*:22*=22222#O#,2222:OOOOO#222*,*OOO22=OO#12*:2,OOO,22909:22OOO222OOO*2*OOO",
"222###2*,9992:22:29992*,22*>>*22=###=2*22=#@####*=*22,#O#*2*###:=**2,#O#**,999*>>#O#*2=OOO*=*#@O",
"##*699999222*##999222*##90922*##*9q9992999222=2,###222=**997*2=###997,*=**>>=*#O#>>**>****396>**",
"+O#9tt90q222#O#0t0222#O#0t0222@O#wyt0990tw222222#OO222::,9w9222#O#9t9222*>**2*OOO>2*:22=**699,:2",
"*##299999=*=#O#997==2*#*80922,##*9w9999009:==,2*#+#>=>***399*,**##799=**>*>*=*#OO*********392***",
"296*#*=22#+#=2,#####*22,*##697*:222*##*22222=#@#293#O*999==*#O#292*2*#O#797#O#***272#O#292==*#OO",
"299#O#*22#O#222#+@#O#222#O@9t922222=#O@=22232#O@909@O#9t922=#OO273=2>OOO9w9#OO***999OOO997=**OOO",
"236*##=22*##=22*####*222*@#2092=:22=#O#22,22=#@#222#O#296=*=#O#=2=*,*#O#292#O#***272#OO292***#OO",
"9992,28992*=:=2:;*799999:***22###222,==:**#O#:22#O#*2==2=#O#,2:992#O#=2*###*=*622*******=*OO#262",
"00922299922222222290wqt9,2,222#OO=2222222:OO@,22OOO*2:>,*OO+222qw9#OO22*OOO*22996****,**=*OOO699",
"9972229992>===*:==6999992=2222###*2=*==2**###*2=#O#>,=*==#O#2,*796*+#***#O#*2*272**>>>****OO#222",
"*#*2,,9972,*#O#>2222=*#*999222*>*797*=*#O#299992*=>=,2996***=2>#O#=2*#O#392792#O##O#232#OO*,*#OO",
"@O#:**909222OO#*22322OOO9t9899:*=999,=>OOO9w99972=*2229w9**2=2*OOO*2:OOO9q99w9OOOOO@793OOO=2*OOO",
"*##2:=272*2=##*22=222*@#909276*>=666==*#+#297332***=::997***=,*+O#*2*###262272###OO#622#O@*:*OOO",
"=*=9992,*##*699999*#*222=,*#O#=2****397==*#O#***993#OO*=*#O#992******392#O#OO#232***#O#***692***",
",=290922=#O#9w9909#O#222=**OOO*>****799222OOO=**909OOO*=*OO#qt9***===997OOOOOO296==*OOO*=*909***",
"=>=999=**#O#363296*##23,*2>#O@*=>==*272***#OO,2:392#OO*=*#O#693******392#OO@O+222***#OO***293***",
"99922*###:2****#O#672996*=2***696,:=#@#*=*>**292#O#******392#OO*==+OO>******=*OO#***222OOO***OOO",
"ww9=2=@O#22,*=*OOO2939w9222:*=qw0222OOO*2=2==9q7OOO*,222*9w7OOO***OOO***=2,=2*OOO***272OOO***OOO",
"999***#O#=2=,,*#O#232996**=***999=**#+#*2****996#OO*=****292#O#*=*#+#********=OO@***,2,OO+***OOO",
",:=###*=*999>>*=,2999*>>#O#392####O#***9w9###*=**>>307#O#*=****697***692#O#296******OOO272***=22",
",:=@OO2229w9**2==,9w9:,,OOO9w9OOOOOO=2*9tq#OO*=*=*,909OOO*=****999**=wt9OO+707******OOO696***276",
"=2=#+#>==996=*,*==999===#+#692####@#=**9q9#O#=2=***292#O@***>**296***292@O#292****,*OOO222***222",
"###=2*######***699=2=OO#==*>>*>==***292=,:===672#O#******#O#799==*#OOOOO****>*OO@666***OOOOOO***",
"OOO=2=@OOOO#***9w9*>*OOO=2=**=:2,===799=*=*==799@OO***,2=OOO909==*OOOOOO*=****###697*=*OOOOOO***",
"#@#=2=#OOOO#*=*996***@O@*=**>****=,*277**=***293#O#******#O#692*=*@OO@OO******OOO666***OOOOOO***",
"=*=672**=#O#392=*=797=**=2*#@#OO@692#O#***262******262#OO*=*>:*#OO222662>**2q=777***OOO=22***222",
"=>,997*==OO@709***90922222=OOOOOO606@OO=,2997****=2796@OO=2=***OOO797999=*>9t6777*2*OOO266==*266",
",**272***#O#262***272=*>*=*@O@@O#296#O#=**392******262#OO*:=***OOO232622***69=777#>*OOO26,***,66",
"793#O#****=*#@#*:*###*=*#O#***222****=*#O#*,*#O@@O#******662*********@O#*=*@OO%**OOO******OOO*%%",
"909@OO***:22OOO*2*@OO***OOO*>*9w9***:22+OO***OOOOOO******992******=2*OOO*2*OOO22*OOO****=*OOO***",
"796#@#*****=###*=*@O#*=*#OO***262****==###,:*#O#@OO******622*******=*OOO*>*OO@***OOO******OOO***",
"=***==676#O@,=*762**=697****=*#O#*=*@O#699773***262#O#292OO#***692OO@29:OO#266***:2:***OOO26,OOO",
"*>*==,797OOO*:=996=*=999==**=*OOO*2*OOO9w9997=**796OOO796OOO**=9w9OOO0t9OOO906***266*%%OOO296OOO",
"***==*662OO#*=*222***222****=*OOO*=*#O#693632***662#O@266OOO***272OOO===@OO662***=:=%%*OOO=2=OOO",
"@OO*=*#O+>,*,=*OOO*=*OO@OO@292***222696***OOOOOO*********OOO666OOO*2OOOO=92OOO***OOO%*#777*,%OOO",
"OOO*2=OOO==*,2*OOO*=*OOOOOO696***762909***OOOOOO****==***OOO696OOO*3*OOO6t6OOO*=*OOO*2*777*2*OOO",
"#O#*,=#OO*=****#OO*=*OOOOO#222***262262***OOOOOO*********@OO27:OOO*2*OOO29,OOO***OOO**@777*,*OOO",
",**267***672@OO***692***222***OOO*=*OOO*=*******222OOO******OOO,2=***OOO*****#..o*=*XXo#%@OOO%**",
"===699=*,798OOO***9w9**=666***OOO*=*OOO***==,***296OOO****=*OOO672***OO2****2*. X29=X X*=*OOO=6=",
"***226***666OO@***696***222***OOO*=*@OO*********22=OOO******OOO22,******%**OOOXXo7**oXO***OOO*==",
"@O#***OO@******OOO***#O@***@OO***266***666OOO***OOO***266*********OOOOOO69=OOOO>7777@*****OOOOOO",
"OOO*=*OOO******OOO*=*OOO***OOO***797=**606OOO*=*OOO***907***22,***OOOOOO6tOOOO#77777*3=*=*OoOOOO",
"#OO***#OO******@OO***@OO*=*OOO***272***262OOO***OOO***676***#7****OOOOOO:9OOOO#277777****%OOOOOO",
"==*OO+662***666***OO@266******272@O@OOO****=*OOO***=**OOO*,*777=72%%*,6=OOO****%***@777OOO===***",
"*,*OOO796=*=706*==OOO809******696OOOOOO****2=OOO*=**=*OOO*2*777=92%#*909OOO=2:***,5*777OOO666***",
"***OOO262***672***@OO692******672@OOOOO******#O@******OOO%>@777=7:%#***=OOO***%%***O777OOO===***",
"666******OOO***OOO****,*OO#622******662OOOOOO266***OOO***OOO**#OOO%=@****=%OOO=6=***%*%=6=XXX***",
"676******OOO*=*OOO*=****OOO676******696OOOOOO696***OOO*=*OOO>,*OoO*2@%%%*2*OoO6w%%%%***60:X .%**",
"622******@OO***@O#******OO#666******676@OOOOO266%**OOO***OOO***OOO%2%%*%%=%OOO**%%%%***=6=oXX%**",
"#OOOOO,22***OOO26,=6,@OO******OOO262***662******OOO=62***266%%%2:=OOO=6,OOO%=%OOO@****%OOO%%%=66",
"OOOOOO692***OOO266276OOO*=****OOO666***666****=*OOO696=**696*%%696OOO9w9OOO*2*OOO%,*=,=OoO**=6=6",
"@@OOOO262***OOO66226=OOO******OOO262***222******OOO=66***:66*%%*=*OOO===OOO%=*OOO%**%%@OOO***=:=",
"222***OO#26:******OOO***=:=OOO******OOO*=*OOOOOO***OOOOOO*=*OOO***OOO***===OOO*OO%=*777%:%OOO**%",
"677***OOO662******OOO*=*:22OOO****=*OOO*=*OOOOOO***OOOOOO*=*OOO***OOO***666OOO===*,*777*2=OOO***",
"666***OOO262******OOO***=:=@OO******OOO***OOOOOO***OOOOOO***OOO***OOO%*@=2=OOO****=%777*,%OOO*%*",
"***OO@******OOO+OO:6=***OOO***=6:OOO*=*OOO****%%266666***OOO***+##**%*%*OOOOOOOOO**%*O@===***OOO",
"*=*OOO*=****OOOOOO666***OOO***666OoO*2=OOO%=****797666***OOO******%=%***oOOOOOOOO**%%%*===***OOO",
"***OOO***%**OOO###262***OOO***:6=OOO%*%OOO******22626=**%OOO****%*%*%%% OOOOOOOOO%%%%%%===**%OOO",
"OOO662OOO26:***=66***OOO***666***OOOOOO%*****26=OOOOOO====6,***262%*%OOO@O@*=*=6=OOOOOO%**=,=OOO",
"OOO696OOO666***666***OOO***666***OOOOOO*=%***666OOOOOO=6=666*%*67=***OOO@O@====66OOOOOO%**=6=OOO",
"OOO676OOO266***666***OOO%**666%%*OOOOOO%%****272OOOOOO===66=%%*66=***OOOOOO==*==:OOOOOO***=:=OOO"
};
